<?xml version="1.0" standalone="no"?>
<!DOCTYPE svg PUBLIC "-//W3C//DTD SVG 20010904//EN"
 "http://www.w3.org/TR/2001/REC-SVG-20010904/DTD/svg10.dtd">
<svg version="1.0" xmlns="http://www.w3.org/2000/svg"
 width="2538.000000pt" height="1408.000000pt" viewBox="0 0 2538.000000 1408.000000"
 preserveAspectRatio="xMidYMid meet">
<metadata>
Created by potrace 1.16, written by Peter Selinger 2001-2019
</metadata>
<g transform="translate(0.000000,1408.000000) scale(0.100000,-0.100000)"
fill="#000000" stroke="none">
<path d="M9833 11513 c-41 -16 26 -235 137 -453 98 -189 260 -413 288 -396 7
4 22 26 33 49 l21 41 19 -23 c24 -30 24 -56 -2 -97 -12 -20 -18 -42 -14 -53 8
-25 80 -91 100 -91 9 0 26 23 39 55 14 30 39 75 56 100 30 44 32 45 58 31 15
-8 163 -151 330 -319 l304 -304 -11 -58 c-13 -70 1 -173 29 -207 9 -12 91 -53
181 -92 l164 -71 -3 -80 c-4 -93 -8 -111 -27 -119 -28 -10 -45 22 -45 85 0 57
-1 59 -32 72 l-33 14 -39 -171 c-32 -143 -43 -176 -67 -204 l-29 -33 0 -241
c0 -240 0 -242 25 -284 14 -24 33 -48 43 -53 15 -9 4 -23 -78 -104 l-95 -94
-130 9 c-150 10 -305 3 -371 -17 -38 -11 -70 -36 -163 -127 -64 -63 -154 -149
-201 -192 l-85 -78 29 -23 c16 -13 50 -31 75 -41 68 -25 68 -31 -1 -37 -69 -7
-139 3 -162 22 -12 10 -22 8 -51 -15 -20 -15 -34 -32 -32 -38 2 -6 28 -26 58
-45 l54 -33 -55 7 c-30 3 -68 12 -83 20 -27 13 -31 12 -103 -36 -40 -28 -90
-57 -109 -65 -30 -12 -34 -17 -25 -34 16 -30 90 -86 157 -119 72 -36 168 -61
236 -61 26 0 47 -3 47 -8 0 -4 -43 -50 -95 -102 -52 -52 -95 -103 -95 -113 0
-23 44 -67 67 -67 10 0 62 44 115 97 80 80 98 93 98 75 0 -98 70 -288 136
-369 57 -70 69 -72 98 -16 13 27 36 65 50 86 22 33 25 43 17 76 -9 40 -3 141
8 141 3 0 12 -23 19 -52 6 -29 16 -56 20 -60 4 -4 41 33 81 83 41 50 108 126
149 170 l74 79 -11 45 c-12 48 -13 195 -2 235 6 21 9 16 15 -29 8 -59 45 -181
55 -181 4 0 46 40 94 88 71 71 91 98 103 138 20 66 28 265 16 394 l-10 105 96
98 97 98 6 -64 c5 -57 15 -81 93 -221 49 -86 91 -154 95 -151 3 4 13 47 21 97
16 95 35 127 62 100 9 -9 9 -42 -2 -155 -7 -78 -15 -303 -17 -500 l-5 -359 26
-38 c47 -71 159 -135 255 -147 l51 -6 0 86 c0 64 4 89 16 101 18 19 20 19 45
6 17 -9 19 -22 19 -102 l0 -91 51 6 c93 11 200 71 250 140 l29 40 0 316 c0
201 -6 374 -15 476 -19 204 -19 224 1 232 26 10 42 -18 54 -92 21 -143 12
-145 113 31 87 154 90 161 96 237 l6 78 107 -108 106 -108 -10 -105 c-12 -129
-4 -328 16 -394 12 -40 32 -67 103 -138 48 -48 90 -88 94 -88 10 0 47 122 55
181 6 45 9 50 15 29 11 -40 10 -187 -2 -235 l-11 -45 74 -79 c41 -44 108 -120
149 -170 40 -50 77 -87 81 -83 4 4 14 31 20 60 7 29 16 52 19 52 11 0 17 -101
8 -141 -8 -33 -5 -43 17 -76 14 -21 37 -59 50 -86 29 -56 41 -54 98 16 65 79
114 206 131 341 l7 49 97 -97 c53 -53 104 -96 114 -96 23 0 67 44 67 67 0 10
-43 61 -95 113 -52 52 -95 98 -95 102 0 5 21 8 48 8 67 0 163 25 235 61 67 33
141 89 157 119 9 16 4 22 -32 38 -24 10 -73 40 -110 65 -64 44 -68 45 -95 32
-15 -8 -53 -17 -83 -20 l-55 -7 54 33 c30 19 56 39 58 45 2 6 -12 23 -32 38
-29 23 -39 25 -51 15 -23 -19 -93 -29 -162 -22 -69 6 -69 12 -1 37 25 10 59
28 75 41 l29 23 -85 78 c-47 43 -137 129 -201 192 -93 91 -125 116 -163 127
-66 20 -221 27 -371 17 l-130 -9 -97 96 c-96 94 -97 95 -79 116 48 52 51 71
51 320 0 241 -3 261 -40 295 -11 10 -30 74 -55 186 l-38 171 -28 -10 c-31 -12
-39 -31 -39 -99 0 -36 -4 -50 -19 -58 -37 -19 -51 11 -51 109 l0 88 161 68
c100 43 168 78 179 92 29 37 44 128 33 195 l-9 57 316 315 c173 172 325 319
337 325 20 10 25 7 53 -34 17 -25 42 -70 56 -100 13 -32 30 -55 39 -55 20 0
92 66 100 91 4 11 -2 33 -14 53 -26 41 -26 67 -2 97 l19 23 21 -41 c11 -23 26
-45 33 -49 31 -20 203 225 308 441 75 153 118 270 127 347 10 82 -22 87 -190
31 -198 -65 -497 -231 -621 -345 -55 -49 -55 -58 4 -88 26 -13 37 -25 34 -34
-9 -22 -59 -29 -91 -13 -62 32 -70 31 -118 -14 -25 -23 -45 -50 -45 -60 0 -13
24 -30 83 -59 85 -44 117 -66 117 -83 0 -6 -140 -152 -312 -324 l-312 -313
-23 21 c-19 18 -53 25 -228 46 l-206 25 -189 -35 -189 -36 -188 36 -188 35
-208 -24 c-150 -18 -212 -30 -225 -41 -17 -16 -36 1 -325 291 -169 170 -307
313 -307 319 0 18 48 51 127 89 88 41 91 55 28 113 -48 45 -56 46 -118 14 -32
-16 -82 -9 -91 13 -3 9 8 21 34 34 59 30 59 39 4 88 -194 177 -703 415 -801
375z m2288 -2133 c3 -212 7 -653 8 -980 l1 -596 39 -38 38 -37 6 38 c3 21 11
84 18 141 12 101 26 135 47 110 5 -7 21 -110 35 -228 l24 -215 -50 -110 c-58
-129 -71 -146 -91 -125 -18 20 -66 145 -75 195 -6 34 -10 40 -31 40 -22 0 -26
-6 -30 -40 -8 -60 -70 -205 -87 -205 -18 0 -123 219 -123 258 0 77 44 418 56
432 24 25 32 1 49 -145 9 -77 18 -141 19 -142 1 -2 18 14 38 35 l36 37 7 975
c4 536 9 979 12 983 3 5 15 7 26 5 22 -3 22 -4 28 -388z m-695 -188 c5 -4 65
-76 133 -160 76 -95 121 -159 117 -168 -12 -32 -37 -27 -82 17 l-44 43 0 -97
c0 -91 -2 -100 -25 -122 -13 -14 -35 -25 -49 -25 -76 0 -86 28 -86 252 -1 145
-4 187 -15 202 -19 25 -19 31 1 50 17 17 33 20 50 8z m1386 -17 c9 -20 8 -28
-5 -43 -15 -16 -17 -46 -17 -211 0 -190 0 -192 -25 -216 -15 -16 -36 -25 -55
-25 -19 0 -40 9 -55 25 -23 22 -25 31 -25 122 l0 97 -45 -44 c-37 -36 -49 -43
-62 -34 -9 6 -18 15 -20 21 -4 10 93 135 214 281 49 58 77 66 95 27z"/>
<path d="M10006 10264 c-24 -23 -20 -35 33 -105 58 -77 165 -178 281 -265 172
-129 264 -160 435 -144 121 12 379 41 382 44 1 1 -3 33 -9 71 -9 56 -8 85 4
145 9 41 15 76 14 77 0 0 -75 -8 -166 -19 -223 -27 -428 -27 -532 1 -145 38
-257 93 -355 174 -50 41 -64 44 -87 21z"/>
<path d="M14105 10224 c-130 -101 -299 -163 -481 -178 -73 -6 -444 22 -523 40
-21 5 -23 3 -17 -23 13 -54 18 -199 8 -236 -9 -32 -8 -37 6 -37 9 0 73 -7 142
-15 342 -40 386 -38 504 18 176 84 486 367 486 444 0 23 -19 43 -39 42 -9 0
-47 -25 -86 -55z"/>
<path d="M12850 6572 c-43 -3 -47 -6 -70 -48 -13 -25 -43 -62 -66 -83 -45 -40
-86 -56 -171 -67 -50 -6 -53 -8 -53 -35 l0 -29 153 0 c275 0 390 27 457 108
30 36 75 140 66 149 -6 6 -248 9 -316 5z"/>
<path d="M410 6315 c0 -34 1 -35 38 -35 l39 0 354 -585 c324 -535 356 -585
379 -583 20 3 59 60 247 368 123 201 228 365 234 365 5 0 110 -164 232 -365
188 -307 227 -365 248 -368 22 -2 55 49 379 580 343 563 357 583 388 586 29 3
32 6 32 38 l0 34 -325 0 -325 0 0 -34 0 -34 66 -7 c130 -14 214 -109 214 -240
0 -35 -5 -76 -11 -92 -13 -36 -179 -303 -187 -303 -10 0 -239 351 -257 393 -8
20 -15 66 -15 104 0 87 23 129 75 139 32 6 35 9 35 40 l0 34 -440 0 -440 0 0
-34 c0 -34 2 -35 41 -38 l40 -3 99 -161 98 -160 -94 -155 c-52 -85 -98 -155
-103 -157 -4 -1 -64 83 -134 187 -136 205 -156 255 -143 344 9 58 38 95 81
103 32 6 35 9 35 40 l0 34 -440 0 -440 0 0 -35z m584 -525 l294 -484 -21 -38
c-12 -21 -26 -37 -30 -35 -5 1 -149 234 -321 517 l-313 515 31 6 c17 4 39 6
48 5 12 -1 114 -159 312 -486z m963 0 l294 -485 -20 -35 c-11 -19 -23 -36 -28
-37 -9 -3 -633 1019 -633 1037 0 7 18 10 46 8 l46 -3 295 -485z"/>
<path d="M15520 6090 c0 -151 4 -260 9 -260 5 0 36 51 69 114 113 215 199 332
238 324 42 -8 44 -31 42 -488 -3 -412 -4 -437 -23 -475 -29 -58 -70 -75 -177
-75 l-88 0 0 -40 0 -40 530 0 530 0 0 39 0 39 -99 4 c-90 3 -102 5 -127 28
-54 50 -54 53 -54 533 0 482 0 487 53 473 37 -9 109 -110 202 -285 66 -125 84
-150 103 -151 l22 0 0 260 0 260 -615 0 -615 0 0 -260z m520 -335 l0 -525 -40
0 -40 0 0 518 c0 285 3 522 7 525 3 4 21 7 40 7 l33 0 0 -525z"/>
<path d="M6350 6209 c-133 -17 -228 -77 -276 -176 -26 -52 -29 -68 -29 -158 0
-87 3 -106 25 -149 57 -112 213 -206 505 -306 222 -76 286 -117 271 -172 -9
-39 -44 -52 -147 -56 -114 -5 -175 10 -294 71 -100 52 -248 193 -286 274 -20
44 -28 52 -51 53 l-28 0 0 -226 0 -225 27 3 c22 2 30 10 38 40 5 20 13 39 16
43 4 3 30 -4 59 -15 295 -116 651 -128 846 -27 56 29 121 110 140 172 23 82
16 214 -16 275 -69 136 -161 191 -443 266 -214 57 -237 66 -273 99 -37 35 -42
61 -19 105 15 29 23 33 81 45 122 24 390 -94 535 -237 48 -48 76 -68 94 -68
l25 0 -2 173 -3 172 -27 3 c-23 3 -28 -1 -33 -25 -12 -54 -10 -54 -72 -32
-219 75 -461 104 -663 78z m-210 -275 c0 -40 39 -104 97 -161 70 -68 185 -124
413 -201 186 -62 243 -91 284 -144 26 -34 55 -123 44 -134 -4 -3 -23 13 -44
36 -44 49 -112 85 -250 133 -413 145 -573 257 -574 403 0 56 10 105 21 98 5
-3 9 -16 9 -30z"/>
<path d="M18624 6205 c-76 -16 -189 -63 -254 -105 -151 -97 -238 -301 -213
-499 29 -228 161 -378 396 -450 164 -50 390 -48 522 5 119 48 239 169 206 208
-7 9 -16 16 -20 16 -3 0 -39 -27 -79 -59 -121 -100 -222 -136 -357 -129 -89 4
-119 22 -155 94 l-25 49 0 345 c0 331 1 347 21 385 12 22 35 48 53 58 41 25
118 24 176 -2 76 -33 202 -166 266 -278 19 -34 30 -43 52 -43 l27 0 0 190 0
190 -30 0 c-28 0 -30 -3 -30 -34 l0 -35 -76 35 c-153 71 -327 92 -480 59z
m-194 -162 c-188 -212 -186 -545 7 -753 30 -33 52 -60 48 -60 -16 0 -129 96
-157 134 -123 169 -141 359 -50 530 28 53 170 206 192 206 6 0 -12 -26 -40
-57z"/>
<path d="M19775 6214 c-105 -15 -155 -29 -197 -56 -107 -68 -150 -153 -151
-298 -1 -67 3 -82 33 -139 59 -110 186 -190 455 -285 72 -26 155 -56 186 -67
31 -11 73 -34 93 -51 31 -25 37 -36 34 -62 -5 -47 -51 -66 -159 -66 -98 0
-163 16 -264 67 -122 61 -257 189 -306 290 -17 36 -26 43 -50 43 l-29 0 2
-222 3 -223 25 0 c19 0 27 8 39 40 8 22 15 41 16 43 1 1 56 -15 121 -37 178
-59 258 -73 424 -74 215 -1 329 29 418 108 72 65 96 126 97 245 0 84 -3 102
-29 157 -58 127 -164 193 -422 263 -242 66 -253 70 -289 102 -63 54 -41 130
43 149 136 30 422 -95 560 -245 36 -40 58 -56 76 -56 l26 0 0 176 0 175 -27
-3 c-22 -2 -29 -10 -36 -41 -7 -30 -13 -37 -26 -32 -64 25 -180 59 -265 76
-97 20 -330 33 -401 23z m-217 -366 c65 -106 207 -187 482 -277 85 -28 179
-65 207 -81 64 -37 104 -93 111 -156 l5 -46 -47 47 c-52 52 -112 82 -288 144
-347 122 -488 213 -523 335 -15 52 -15 81 2 141 4 15 9 8 17 -26 7 -25 22 -61
34 -81z"/>
<path d="M21210 6205 c-148 -33 -255 -90 -349 -186 -97 -99 -141 -205 -141
-343 0 -111 26 -193 89 -283 201 -285 674 -368 999 -175 218 130 324 358 267
577 -48 184 -217 341 -430 400 -85 24 -347 30 -435 10z m-40 -69 c0 -3 -28
-20 -62 -38 -188 -100 -291 -321 -247 -530 28 -136 140 -283 257 -337 67 -31
68 -47 1 -21 -188 71 -325 225 -348 392 -22 161 29 293 156 408 69 61 243 151
243 126z m319 -10 c95 -50 141 -194 141 -446 0 -262 -60 -435 -164 -475 -138
-53 -244 55 -276 280 -12 89 -12 288 0 385 19 141 57 221 122 253 41 21 139
22 177 3z m229 -111 c58 -114 67 -163 67 -350 -1 -157 -3 -176 -28 -250 -25
-75 -94 -202 -104 -191 -2 2 5 46 16 98 47 217 47 478 0 693 -10 49 -19 93
-19 98 0 17 37 -37 68 -98z"/>
<path d="M3050 6145 l0 -35 63 -1 c92 0 127 -16 157 -69 l25 -45 3 -312 c3
-332 -1 -372 -42 -420 -23 -26 -30 -28 -115 -31 l-91 -4 0 -39 0 -39 405 0
405 0 0 40 c0 31 -4 40 -17 40 -46 0 -94 22 -108 50 -19 38 -22 349 -3 368 17
17 289 17 306 0 19 -19 16 -330 -3 -368 -14 -28 -62 -50 -107 -50 -14 0 -18
-9 -18 -40 l0 -40 405 0 405 0 0 39 0 39 -89 4 c-77 3 -93 6 -114 26 -44 41
-48 83 -45 422 3 286 5 319 22 353 27 55 55 70 147 75 l79 5 0 33 0 34 -405 0
-405 0 0 -40 c0 -39 1 -40 33 -40 18 0 43 -7 55 -16 44 -30 52 -64 52 -209 l0
-135 -165 0 -165 0 0 135 c0 145 8 179 52 209 12 9 37 16 55 16 32 0 33 1 33
40 l0 40 -405 0 -405 0 0 -35z m1145 -475 l0 -435 -32 -3 -33 -3 0 434 c0 238
3 437 7 441 4 4 19 6 33 4 l25 -3 0 -435z m-755 -5 l0 -435 -35 0 -35 0 0 435
0 435 35 0 35 0 0 -435z"/>
<path d="M4910 6146 l0 -33 80 -5 c67 -4 84 -9 106 -29 52 -48 54 -62 54 -421
0 -297 -2 -337 -18 -368 -23 -47 -53 -60 -144 -60 l-78 0 0 -40 0 -40 455 0
455 0 0 40 0 40 -77 0 c-91 0 -119 12 -147 60 -20 33 -21 50 -21 365 0 303 2
334 19 373 27 59 56 75 148 80 l78 5 0 33 0 34 -455 0 -455 0 0 -34z m385
-476 l0 -435 -32 -3 -33 -3 0 434 c0 238 3 437 7 441 4 4 19 6 33 4 l25 -3 0
-435z"/>
<path d="M7390 6146 l0 -33 80 -5 c98 -6 127 -24 153 -93 16 -43 17 -81 15
-369 -3 -287 -5 -325 -21 -358 -23 -46 -56 -58 -154 -58 l-74 0 3 -37 3 -38
428 -3 427 -2 0 40 0 40 -45 0 c-118 0 -145 44 -145 234 0 146 5 156 78 156
l47 -1 140 -234 140 -234 298 -1 297 0 0 40 0 40 -72 0 -73 0 -163 286 c-89
157 -165 297 -168 313 -7 36 26 76 122 147 126 93 193 125 279 131 l75 6 0 33
0 34 -315 0 c-173 0 -315 -3 -316 -7 -9 -65 -7 -68 52 -73 64 -6 89 -22 89
-57 0 -61 -55 -117 -236 -238 -128 -86 -182 -109 -226 -100 -41 9 -48 36 -48
176 0 187 21 217 160 226 l80 6 0 33 0 34 -455 0 -455 0 0 -34z m388 -479 l2
-438 -32 3 -33 3 -2 425 c-1 234 0 431 2 438 3 8 16 12 32 10 l28 -3 3 -438z
m685 -215 c64 -115 117 -212 117 -215 0 -4 -18 -7 -39 -7 l-39 0 -121 211
c-67 116 -121 213 -121 215 0 2 19 4 43 4 l42 0 118 -208z"/>
<path d="M9180 6142 l0 -39 79 1 c71 1 82 -2 106 -24 53 -49 55 -62 55 -422 0
-297 -2 -337 -18 -368 -23 -47 -53 -60 -144 -60 l-78 0 0 -40 0 -40 645 0 645
0 0 170 c0 157 -1 170 -18 170 -11 0 -34 -25 -61 -65 -84 -129 -191 -185 -366
-193 -100 -4 -112 -2 -136 17 -34 26 -49 86 -49 193 0 90 13 153 38 181 21 23
104 22 159 -2 53 -24 127 -92 143 -131 8 -18 20 -30 31 -30 18 0 19 12 19 245
0 227 -1 245 -18 245 -10 0 -27 -18 -41 -46 -28 -52 -85 -105 -146 -134 -52
-25 -126 -27 -147 -2 -35 38 -49 166 -28 243 6 20 22 48 36 63 24 23 34 26 98
26 79 0 165 -19 226 -50 54 -28 157 -125 197 -187 58 -91 63 -79 63 132 l0
185 -645 0 -645 0 0 -38z m380 -472 l0 -440 -30 0 -30 0 0 440 0 440 30 0 30
0 0 -440z"/>
<path d="M10660 6147 l0 -34 79 -5 c92 -5 120 -20 147 -75 17 -34 19 -67 22
-343 5 -438 0 -452 -159 -458 l-89 -4 0 -39 0 -39 430 0 430 0 0 39 0 39 -64
4 c-109 7 -126 41 -126 247 0 111 3 133 16 138 8 3 23 -2 32 -11 9 -9 69 -114
132 -234 l115 -217 318 -3 317 -2 0 40 0 40 -64 0 -65 0 -66 125 c-37 68 -72
128 -78 132 -7 4 -34 15 -60 25 -49 17 -147 83 -147 98 0 5 20 11 45 14 25 3
65 9 91 12 180 22 266 105 265 255 0 97 -17 146 -71 199 -88 88 -56 85 -797
88 l-653 3 0 -34z m388 -479 l2 -438 -35 0 -35 0 0 433 c0 239 3 437 7 441 4
4 19 6 33 4 l25 -3 3 -437z m532 411 c104 -58 129 -232 47 -317 -64 -66 -191
-69 -267 -6 l-30 26 0 141 c1 185 4 189 132 183 57 -3 88 -10 118 -27z m208
-12 c37 -39 65 -133 59 -198 -6 -66 -42 -145 -77 -168 -23 -15 -24 -15 -16 4
28 73 34 221 12 323 -7 34 -10 62 -6 62 4 0 16 -10 28 -23z m-201 -509 c18
-35 64 -123 103 -196 l70 -133 -42 3 -43 3 -97 185 c-54 102 -98 188 -98 193
0 4 17 7 38 7 36 0 39 -2 69 -62z"/>
<path d="M12370 6145 l0 -35 63 -1 c92 0 127 -16 157 -69 l25 -45 3 -312 c3
-332 -1 -372 -42 -420 -23 -26 -30 -28 -115 -31 l-91 -4 0 -39 0 -39 455 0
455 0 0 40 0 40 -77 0 c-92 0 -122 13 -145 60 -16 31 -18 71 -18 368 0 359 2
373 54 421 22 20 39 25 106 29 l80 5 0 33 0 34 -455 0 -455 0 0 -35z m388
-477 l2 -438 -35 0 -35 0 0 433 c0 239 3 437 7 441 4 4 19 6 33 4 l25 -3 3
-437z"/>
<path d="M13630 6146 l0 -33 73 -7 c39 -4 82 -14 93 -21 12 -8 36 -39 53 -70
l32 -56 -157 -297 c-87 -163 -168 -314 -180 -334 -27 -42 -91 -83 -147 -93
-37 -7 -38 -9 -35 -44 l3 -36 233 -3 232 -2 0 40 0 40 -56 0 c-68 0 -92 12
-110 56 -15 35 -13 75 8 142 l10 32 236 -2 237 -3 33 -64 c56 -111 39 -161
-56 -161 l-52 0 0 -40 0 -40 400 0 400 0 0 40 0 39 -61 3 -62 3 -256 472 -256
473 -307 0 -308 0 0 -34z m358 -48 c11 -14 472 -857 472 -864 0 -2 -17 -4 -37
-4 l-38 1 -236 434 c-130 239 -234 437 -231 440 10 10 60 5 70 -7z m31 -391
c50 -93 91 -170 91 -173 0 -2 -85 -4 -190 -4 -115 0 -190 4 -190 10 0 5 15 38
34 72 18 35 59 112 91 171 31 60 61 105 65 100 4 -4 49 -84 99 -176z"/>
<path d="M16860 6146 c0 -33 1 -34 49 -41 53 -7 82 -30 100 -78 7 -18 11 -144
11 -341 0 -345 5 -381 60 -448 66 -80 219 -122 440 -122 169 1 228 17 296 83
76 73 78 79 85 416 4 165 12 317 17 337 23 87 71 132 155 146 40 7 42 9 45 45
l3 37 -245 0 -246 0 0 -39 c0 -37 1 -39 42 -45 54 -9 121 -73 139 -136 10 -33
14 -120 14 -335 0 -277 -1 -292 -21 -330 -12 -22 -30 -48 -41 -57 -31 -28
-101 -48 -176 -50 -66 -2 -70 -1 -97 29 -44 49 -50 103 -50 450 0 386 6 415
92 432 29 6 33 11 36 44 l3 37 -355 0 -356 0 0 -34z m300 -446 c0 -225 -2
-410 -4 -410 -2 0 -15 17 -28 38 -23 37 -23 39 -26 410 l-3 372 30 0 31 0 0
-410z"/>
<path d="M22150 6141 l0 -38 54 -6 c72 -7 141 -44 202 -108 79 -84 89 -122 89
-324 -1 -193 -14 -245 -80 -323 -42 -48 -138 -99 -206 -108 l-49 -7 0 -38 0
-39 375 0 375 0 0 39 0 38 -49 7 c-68 9 -164 60 -206 108 -51 60 -76 136 -82
249 -8 144 18 200 80 167 14 -7 189 -160 391 -340 l365 -328 50 0 49 0 4 403
c5 436 8 460 63 532 32 42 73 65 134 74 45 6 46 7 49 44 l3 37 -280 0 -281 0
0 -39 0 -38 50 -5 c107 -10 175 -97 187 -236 3 -39 3 -78 0 -87 -6 -14 -10
-14 -34 -1 -16 8 -122 102 -238 210 l-210 195 -402 1 -403 0 0 -39z m839 -431
l421 -385 0 -48 0 -48 -23 18 c-13 10 -211 190 -440 401 -386 355 -417 386
-417 416 0 38 7 48 26 38 7 -4 202 -180 433 -392z"/>
<path d="M15776 4327 c-26 -19 -27 -89 -2 -116 27 -30 89 -29 110 1 22 31 20
91 -2 111 -22 20 -81 22 -106 4z"/>
<path d="M11660 3865 l0 -445 60 0 60 0 2 165 3 166 69 -166 70 -165 63 0 62
0 -18 43 c-10 23 -47 105 -81 182 l-63 139 77 154 76 153 -62 -3 -62 -3 -65
-145 -66 -144 -3 257 -2 257 -60 0 -60 0 0 -445z"/>
<path d="M15510 3865 l0 -445 60 0 60 0 0 445 0 445 -60 0 -60 0 0 -445z"/>
<path d="M9757 4238 c-3 -13 -9 -51 -13 -85 l-7 -63 -33 0 c-34 0 -34 -1 -34
-45 0 -41 2 -45 24 -45 l24 0 4 -242 c3 -215 5 -248 22 -282 32 -64 119 -86
184 -46 26 16 32 26 32 54 0 34 0 34 -40 29 -70 -10 -70 -10 -70 253 l0 233
53 3 52 3 3 43 3 42 -55 0 -56 0 0 85 0 85 -44 0 c-37 0 -45 -3 -49 -22z"/>
<path d="M14157 4246 c-50 -19 -72 -39 -99 -95 -22 -44 -23 -55 -23 -316 0
-264 0 -271 24 -318 22 -45 80 -97 107 -97 7 0 15 -23 19 -51 13 -92 78 -134
179 -115 33 6 36 10 36 40 0 36 -13 46 -55 46 -26 0 -55 33 -55 62 0 10 10 20
25 24 38 9 92 76 109 135 19 63 23 457 5 538 -13 62 -44 109 -87 134 -42 25
-136 32 -185 13z m122 -105 c29 -29 33 -80 29 -347 -3 -221 -5 -244 -22 -263
-25 -28 -77 -28 -102 0 -17 19 -19 42 -22 274 -3 274 3 330 41 345 35 14 56
11 76 -9z"/>
<path d="M16056 4189 c-10 -92 -13 -99 -47 -99 -28 0 -29 -2 -29 -45 0 -41 2
-45 25 -45 l25 0 0 -227 c0 -241 6 -286 45 -330 20 -25 30 -28 82 -28 77 0
113 22 113 68 l0 33 -52 -1 c-47 0 -53 2 -59 25 -4 14 -7 123 -8 243 l-1 217
55 0 55 0 0 45 0 45 -55 0 -55 0 0 85 0 85 -44 0 -43 0 -7 -71z"/>
<path d="M7510 3835 l0 -415 108 0 c130 0 172 11 223 57 56 50 70 104 76 298
9 253 -14 367 -87 428 -43 37 -89 47 -212 47 l-108 0 0 -415z m203 314 c64
-17 68 -39 65 -329 -3 -234 -4 -250 -24 -277 -17 -23 -30 -29 -68 -31 l-46 -3
0 325 c0 365 -6 337 73 315z"/>
<path d="M10260 3835 l0 -415 65 0 65 0 0 156 0 155 22 -3 c20 -3 31 -25 77
-155 l53 -153 64 0 c35 0 64 4 64 8 0 5 -27 75 -60 157 -33 82 -60 153 -60
158 0 4 15 23 34 40 43 41 66 116 66 215 0 97 -16 148 -61 193 -45 45 -98 59
-228 59 l-101 0 0 -415z m238 288 c22 -25 23 -32 20 -139 -4 -131 -13 -148
-85 -160 l-43 -7 0 173 0 173 43 -7 c27 -4 50 -15 65 -33z"/>
<path d="M12340 3835 l0 -415 151 0 150 0 -3 48 -3 47 -87 3 -88 3 0 364 0
365 -60 0 -60 0 0 -415z"/>
<path d="M8139 4091 c-108 -35 -146 -143 -136 -385 6 -144 21 -203 64 -248 36
-37 84 -52 146 -44 94 13 134 55 144 151 l6 55 -50 0 -51 0 -6 -44 c-8 -53
-24 -68 -68 -64 -45 4 -58 34 -58 136 l0 82 109 0 109 0 6 28 c29 157 8 261
-65 314 -28 20 -112 31 -150 19z m82 -100 c21 -17 24 -30 27 -100 l4 -81 -62
0 -62 0 4 81 c3 70 6 83 27 100 13 10 27 19 31 19 4 0 18 -9 31 -19z"/>
<path d="M8565 4091 c-79 -19 -115 -66 -115 -149 0 -72 25 -120 125 -241 47
-57 88 -113 91 -126 9 -38 -12 -65 -51 -65 -44 0 -61 19 -69 75 l-7 45 -43 0
c-42 0 -44 -1 -49 -37 -15 -93 32 -165 116 -177 96 -15 166 15 198 82 36 74
10 165 -76 261 -94 106 -125 152 -125 186 0 45 34 71 73 56 25 -10 31 -24 39
-101 3 -21 9 -25 41 -28 33 -3 38 0 48 25 17 44 6 119 -22 149 -13 14 -31 29
-39 34 -24 12 -103 19 -135 11z"/>
<path d="M8974 4082 c-94 -45 -117 -117 -112 -355 3 -156 5 -176 26 -219 35
-70 72 -93 152 -93 109 0 165 49 172 150 l3 50 -52 3 -53 3 0 -33 c0 -46 -24
-78 -59 -78 -48 0 -63 29 -69 130 l-5 90 116 0 115 0 7 66 c16 146 -11 246
-74 279 -49 25 -121 28 -167 7z m124 -128 c7 -21 12 -61 10 -89 l-3 -50 -64
-3 -64 -3 6 73 c7 88 13 107 41 118 34 12 60 -4 74 -46z"/>
<path d="M9500 4093 c-8 -3 -30 -19 -47 -36 l-33 -31 0 32 c0 31 -1 32 -45 32
l-45 0 0 -335 0 -335 60 0 60 0 0 280 0 280 26 17 c25 16 27 16 40 -2 8 -10
14 -40 14 -67 l0 -48 44 0 c50 0 56 10 56 93 0 67 -21 104 -68 116 -40 12 -40
12 -62 4z"/>
<path d="M10865 4086 c-92 -35 -119 -120 -112 -357 5 -183 15 -226 64 -275 61
-61 173 -59 234 6 54 56 64 106 64 310 0 169 -1 177 -27 232 -18 39 -36 62
-58 73 -45 23 -118 28 -165 11z m118 -115 c7 -16 11 -96 12 -211 0 -213 -8
-250 -56 -250 -53 0 -64 33 -68 211 -4 182 9 266 42 278 32 12 57 2 70 -28z"/>
<path d="M11337 4086 c-52 -19 -71 -39 -98 -99 -18 -43 -23 -75 -27 -188 -7
-221 17 -312 98 -367 31 -21 43 -23 94 -18 99 10 146 59 146 154 l0 52 -50 0
c-48 0 -50 -1 -50 -27 0 -48 -22 -78 -55 -78 -51 0 -56 24 -53 253 3 198 4
204 25 222 33 26 61 15 73 -29 5 -20 10 -46 10 -58 0 -21 5 -23 50 -23 49 0
50 0 52 33 5 121 -29 167 -132 181 -28 4 -59 1 -83 -8z"/>
<path d="M12816 4090 c-41 -13 -75 -48 -99 -100 -17 -37 -21 -72 -25 -193 -7
-232 20 -327 105 -368 54 -26 130 -22 171 8 76 56 95 132 90 357 -3 150 -5
165 -28 211 -15 28 -39 57 -57 68 -37 21 -116 30 -157 17z m93 -99 c13 -13 22
-41 26 -86 11 -95 1 -345 -14 -372 -17 -34 -65 -31 -88 4 -16 23 -18 52 -18
213 0 221 8 250 68 259 4 0 16 -8 26 -18z"/>
<path d="M15175 4096 c-5 -2 -22 -7 -37 -10 -68 -15 -118 -96 -104 -170 7 -36
7 -36 56 -36 l50 0 0 44 c0 36 5 48 27 65 28 23 59 20 81 -7 7 -9 12 -45 12
-86 l-1 -71 -63 -28 c-122 -55 -176 -122 -176 -222 0 -27 9 -68 19 -91 37 -81
147 -98 217 -33 l22 20 6 -25 c6 -23 11 -26 52 -26 l45 0 -3 294 c-3 281 -4
296 -24 323 -11 15 -33 34 -47 41 -27 13 -114 25 -132 18z m85 -459 c0 -114
-6 -127 -56 -127 -88 0 -84 148 5 207 19 13 38 23 42 23 5 0 9 -46 9 -103z"/>
<path d="M13130 4083 c-1 -5 23 -155 52 -335 l52 -328 61 0 61 0 39 238 c22
130 41 230 42 222 3 -22 72 -400 79 -432 5 -27 8 -28 63 -28 l57 0 52 328 c29
180 53 330 52 335 0 4 -25 7 -55 7 -53 0 -54 0 -60 -32 -9 -55 -45 -390 -46
-433 -1 -35 -3 -32 -11 20 -10 71 -54 317 -69 393 l-10 52 -52 0 -52 0 -33
-192 c-18 -106 -37 -220 -41 -253 -5 -36 -9 -47 -10 -28 -1 39 -49 418 -56
451 -5 19 -12 22 -60 22 -30 0 -55 -3 -55 -7z"/>
<path d="M14560 3806 c0 -294 3 -322 42 -363 42 -45 140 -39 188 12 26 28 40
25 40 -11 0 -22 4 -24 50 -24 l50 0 0 335 0 335 -65 0 -65 0 0 -280 c0 -266
-1 -280 -19 -290 -32 -17 -69 -12 -85 12 -14 19 -16 64 -16 290 l0 268 -60 0
-60 0 0 -284z"/>
<path d="M15760 3755 l0 -335 65 0 65 0 0 335 0 335 -65 0 -65 0 0 -335z"/>
<path d="M16294 4073 c3 -10 40 -164 82 -341 53 -228 74 -334 70 -357 -9 -47
-51 -85 -92 -85 -33 0 -34 -1 -34 -40 0 -37 2 -39 35 -46 77 -14 140 17 175
86 16 32 170 742 170 785 0 12 -14 15 -58 15 l-58 0 -32 -207 c-18 -115 -32
-220 -32 -234 0 -14 -3 -29 -7 -33 -6 -6 -30 111 -84 412 l-11 62 -65 0 c-57
0 -64 -2 -59 -17z"/>
</g>
</svg>
